<svg width="512" height="512" viewBox="0 0 512 512" fill="none" xmlns="http://www.w3.org/2000/svg">
<path
        d="M283.587 418.326C284.082 367.662 271.238 326.463 254.899 326.303C238.559 326.144 224.912 367.085 224.418 417.748C223.922 468.412 236.767 509.613 253.105 509.772C269.445 509.932 283.092 468.99 283.587 418.326Z" fill="currentColor"/>
<path d="M188.825 406.822C216.635 364.47 228.106 322.866 214.448 313.897C200.789 304.929 167.172 331.991 139.363 374.343C111.554 416.696 100.082 458.298 113.74 467.268C127.4 476.236 161.015 449.174 188.825 406.822Z" fill="currentColor"/>
<path d="M115.217 346.053C161.51 325.462 193.654 296.667 187.013 281.737C180.372 266.807 137.461 271.397 91.168 291.989C44.8751 312.58 12.7308 341.376 19.3717 356.306C26.0124 371.236 68.9237 366.645 115.217 346.053Z" fill="currentColor"/>
<path d="M181.455 239.872C183.942 223.722 145.362 204.382 95.2861 196.674C45.2092 188.966 2.59935 195.811 0.113676 211.961C-2.37199 228.11 36.2078 247.45 86.2842 255.157C136.36 262.865 178.97 256.021 181.455 239.872Z" fill="currentColor"/>
<path d="M199.435 201.392C210.256 189.15 188.251 152.025 150.287 118.472C112.323 84.9196 72.7755 67.6454 61.9547 79.8889C51.134 92.1327 73.1381 129.258 111.102 162.81C149.066 196.363 188.615 213.636 199.435 201.392Z" fill="currentColor"/>
<path d="M235.24 178.918C250.963 174.469 252.525 131.341 238.73 82.5896C224.935 33.8379 201.005 -2.07652 185.283 2.37254C169.56 6.8216 167.998 49.9492 181.793 98.7014C195.588 147.452 219.517 183.367 235.24 178.918Z" fill="currentColor"/>
<path d="M332.467 100.225C347.221 51.7546 346.511 8.60442 330.878 3.84625C315.246 -0.912024 290.614 34.5235 275.859 82.9937C261.106 131.464 261.817 174.614 277.449 179.372C293.081 184.13 317.714 148.695 332.467 100.225Z" fill="currentColor"/>
<path d="M401.94 165.715C440.553 132.911 463.279 96.2228 452.698 83.7705C442.119 71.3178 402.241 87.8161 363.629 120.619C325.016 153.423 302.291 190.111 312.87 202.564C323.449 215.016 363.328 198.519 401.94 165.715Z" fill="currentColor"/>
<path d="M424.909 258.391C475.128 251.672 514.081 233.097 511.914 216.901C509.748 200.706 467.281 193.023 417.062 199.741C366.844 206.459 327.89 225.035 330.057 241.231C332.224 257.426 374.69 265.109 424.909 258.391Z" fill="currentColor"/>
<path d="M489.692 360.945C496.626 346.149 465.056 316.726 419.177 295.225C373.3 273.724 330.488 268.289 323.554 283.085C316.62 297.881 348.19 327.305 394.068 348.805C439.945 370.305 482.758 375.741 489.692 360.945Z" fill="currentColor"/>
<path d="M393.188 470.113C407.021 461.416 396.372 419.594 369.404 376.702C342.435 333.81 309.358 306.09 295.526 314.787C281.693 323.484 292.342 365.307 319.31 408.199C346.279 451.091 379.356 478.811 393.188 470.113Z" fill="currentColor"/>
</svg>
