<svg width="105" height="38" viewBox="0 0 105 38" fill="none" xmlns="http://www.w3.org/2000/svg">
<path d="M24.4635 37.5L15.2842 5.42987C14.4058 2.36816 12.6051 0.5 10.6726 0.5H6.71979V0.759465C8.87186 0.759465 9.92594 2.8352 9.31106 5.27419L0 37.5H0.878403L6.14882 19.2335H13.7909L19.0613 37.5H24.4635ZM6.45626 18.1957L9.96987 6.0007L13.4835 18.1957H6.45626Z" fill="white"/>
<path d="M51.8477 37.4999H55.1417L43.6786 22.6584L43.6347 22.6065C47.1044 20.9459 49.5639 17.002 49.5639 12.2797C49.5639 6.20821 45.3915 1.22644 40.2089 1.22644H24.8808V1.48591C27.0768 1.48591 28.8336 3.56164 28.8336 6.10442V37.4999H33.577V23.3849H38.2764L47.324 35.1128C48.5098 36.6177 50.1348 37.4999 51.8477 37.4999ZM33.577 22.2952V2.26431H38.9791C42.2292 2.26431 44.9084 6.77903 44.9084 12.2797C44.9084 15.8085 43.8103 18.9221 42.1853 20.6865C41.6143 21.3092 40.9995 21.7762 40.3407 22.0357C40.0771 22.1395 39.8136 22.2433 39.5501 22.2433C39.3744 22.2952 39.1987 22.2952 38.9791 22.2952H33.577Z" fill="white"/>
<path d="M80.8219 37.5L71.6426 5.42987C70.7642 2.36816 68.9635 0.5 67.031 0.5H63.0782V0.759465C65.2303 0.759465 66.2844 2.8352 65.6695 5.27419L56.3584 37.5H57.2368L62.5072 19.2335H70.1493L75.4197 37.5H80.8219ZM62.8147 18.1957L66.3283 6.0007L69.8419 18.1957H62.8147Z" fill="white"/>
<path d="M85.1481 6.10442V16.068H89.8915V1.22644H81.1953V1.43401C83.3913 1.43401 85.1481 3.56164 85.1481 6.10442ZM85.1481 37.4999H105V36.4621H89.8915V22.8141C89.8915 19.7005 87.7834 17.1577 85.1481 17.1577V37.4999Z" fill="white"/>
</svg>
